# xmcd
# 
# Track frame offsets:
#     150
#     15580
#     38420
#     59499
#     72740
#     92404
#     108886
#     132553
#     149515
#     164478
#     178274
#     186845
#     205241
#     218604
#     235607
#     252387
#     265233
# 
# Disc length: 3748
# 
# Revision: 3
# Processed by: cddbd v1.5.2PL0 Copyright (c) Steve Scherf et al.
# Submitted via: fre:ac v1.0.31
# 
DISCID=fa0ea211
DTITLE=Garth Brooks - The Lost Sessions
DYEAR=2005
DGENRE=Country
TTITLE0=Good Ride Cowboy
TTITLE1=Allison Miranda
TTITLE2=Love Will Always Win (Duet With Trisha Yearwood)
TTITLE3=She Don't Care About Me
TTITLE4=That Girl is a Cowboy
TTITLE5=Fishin' in the Dark
TTITLE6=For a Minute There
TTITLE7=I'd Rather Have Nothing
TTITLE8=Cowgirl's Saddle
TTITLE9=Under the Table
TTITLE10=American Dream
TTITLE11=I'll Be the Wind
TTITLE12=Meet Me in Love
TTITLE13=You Can't Help Who You Love
TTITLE14=Please Operator (Could You Trace This Call)
TTITLE15=My Baby No Esta Aqui
TTITLE16=Last Night I had the Strangest Dream
EXTD=YEAR: 2005
EXTT0=
EXTT1=
EXTT2=
EXTT3=
EXTT4=
EXTT5=
EXTT6=
EXTT7=
EXTT8=
EXTT9=
EXTT10=
EXTT11=
EXTT12=
EXTT13=
EXTT14=
EXTT15=
EXTT16=
PLAYORDER=
